<?xml version="1.0" encoding="utf-8"?>
<!-- Generator: Adobe Illustrator 16.0.0, SVG Export Plug-In . SVG Version: 6.00 Build 0)  -->
<!DOCTYPE svg PUBLIC "-//W3C//DTD SVG 1.1//EN" "http://www.w3.org/Graphics/SVG/1.1/DTD/svg11.dtd">
<svg version="1.1" xmlns="http://www.w3.org/2000/svg" xmlns:xlink="http://www.w3.org/1999/xlink" x="0px" y="0px" width="400px"
	 height="400px" viewBox="0 0 400 400" style="enable-background:new 0 0 400 400;" xml:space="preserve">
<style type="text/css">
<![CDATA[
	.st0{fill:none;stroke:#FFFFFF;stroke-width:5;stroke-linecap:round;stroke-miterlimit:10;}
	.st1{fill:none;stroke:#FFFFFF;stroke-width:5;stroke-miterlimit:10;}
	.st2{fill:#FFFFFF;}
]]>
</style>
<g id="WRITING">
</g>
<g id="DOTS">
</g>
<g id="RIMINI">
</g>
<g id="FAENZA">
</g>
<g id="stroke-air">
</g>
<g id="stroke-logo">
	<g>
		<g>
			<path class="st2" d="M104.7,110.1c0,0.8,0,2.5-0.9,4.5c-0.6,1.3-1.2,2.2-3,4.2l-7.1,8.3l-16-13.8l7.6-8.8c1.7-2,3.4-3.5,5.9-4.3
				c0.4-0.1,1.1-0.4,2.1-0.4c2.7-0.2,5.4,1.1,7.4,2.8C104,105.4,104.6,108.3,104.7,110.1z M91.8,104.4c-0.3,0-0.9,0.2-1.6,0.6
				c-0.7,0.4-1.2,0.8-2.3,2.1l-4,4.6l10.4,8.9l3.8-4.5c0.2-0.2,1.3-1.5,1.8-2.8c0.7-1.8,0.4-4.2-2.8-7
				C96.8,106.1,94.3,104,91.8,104.4z"/>
			<path class="st2" d="M119.4,101.2l-12.6-17l4.3-3.2l12.6,17L119.4,101.2z"/>
			<path class="st2" d="M152,82.8l-3.3-2.9l-9.9,4.4l0,4.4l-5.3,2.3l0.8-23.5l5.2-2.3l17.9,15.3L152,82.8z M139,71l-0.1,9.1l6.8-3
				L139,71z"/>
			<path class="st2" d="M189,71.4c-0.1,0.3-0.5,1-1.1,1.7c-2,2.3-5.6,3.5-8.5,3.9c-0.7,0.1-2.3,0.3-4.2,0.1
				c-4.3-0.4-6.4-2.3-7.4-3.9c-0.6-1-0.9-1.9-1.2-4.2l-1.6-12.2l5.2-0.7l1.6,12.4c0.2,1.6,0.6,2.9,2.2,3.7c1.8,1,4.2,0.6,4.7,0.5
				c0.4-0.1,2.5-0.3,3.8-1.4c0.9-0.7,1.3-1.5,1.4-1.9c0.2-0.5,0.2-0.9,0.1-1.9l-1.7-13.1l5.2-0.7l1.6,12.2
				C189.6,67.9,189.8,69.5,189,71.4z"/>
			<path class="st2" d="M204.8,75.2l2.8-21l5.3,0.7l-2.3,17.1l11.7,1.6l-0.5,3.9L204.8,75.2z"/>
			<path class="st2" d="M258.9,82.2c-0.8,1.2-2.7,3.7-6.5,4.5c-1.7,0.3-4.7,0.4-8.6-1.2c-5.8-2.4-7.9-6.1-8.4-8.7
				c-0.3-1.2-0.5-3.7,0.8-6.7c1.9-4.5,5.1-6,7-6.5c2.8-0.7,5.9-0.2,8.6,0.8c2.5,0.9,5.2,2.5,7,4.5c0.2,0.3,0.7,0.8,1.2,1.6
				c0.4,0.6,0.7,1.4,0.9,2.1c0.4,1.3,0.8,4-0.6,7.3C260,80.2,259.6,81.3,258.9,82.2z M255.3,72.5c-0.7-2.1-2.5-3.6-4.6-4.4
				c-0.5-0.2-1.7-0.6-3.1-0.5c-4.3,0.1-6,3.4-6.6,4.7c-0.2,0.4-0.7,1.7-0.7,3c0,0.4,0,0.8,0.2,1.6c0.1,0.2,0.2,0.9,0.5,1.5
				c0.5,1,1.6,2.4,4.1,3.4c0.4,0.2,1.6,0.6,3,0.7c4.4,0.2,6.3-3.4,6.8-4.6C255.4,77.2,256.2,75,255.3,72.5z"/>
			<path class="st2" d="M305.5,118.3c-0.3,0.1-0.8,0.2-1.5,0.2c-0.3,0-1,0-1.8-0.2c-1.8-0.6-3.3-2.2-4.5-3.6l-4.9-5.6l-6,5.3
				l-3.4-3.9l15.9-14l8.6,9.8c0.4,0.4,0.7,0.8,1,1.2c1.3,1.7,2.2,3.7,1.5,5.9c-0.2,0.7-0.8,2-2.2,3.2
				C307.9,117,306.8,117.9,305.5,118.3z M305.7,109.5c-0.1-0.3-0.3-0.5-0.8-1.1l-4.9-5.6l-4.4,3.8l4.3,4.9c0.5,0.6,1.2,1.4,1.9,1.7
				c1.4,0.7,2.5-0.2,2.9-0.6C305.1,112.5,306.4,111.2,305.7,109.5z"/>
			<path class="st2" d="M303.7,137l18.5-10.3l2.6,4.6l-18.5,10.3L303.7,137z"/>
			<path class="st2" d="M317.7,171.8l3.3-2.9l-3.1-10.4l-4.3-0.6l-1.6-5.6l23.2,3.8l1.6,5.5l-17.4,15.8L317.7,171.8z M331.1,160.3
				l-9-1.3l2.1,7.1L331.1,160.3z"/>
			<path class="st2" d="M320.7,207.2l14.9-13l-14.8-0.1l0-5l21.2,0.1l0,5.3l-14.9,12.9l14.8,0.1l0,5l-21.2-0.1L320.7,207.2z"/>
			<path class="st2" d="M318.3,226.5l20.3,6l-5.6,18.9l-3.7-1.1l4.1-13.8l-4.6-1.4l-4,13.4l-3.6-1.1l4-13.4l-4.8-1.4l-4.3,14.4
				l-3.6-1.1L318.3,226.5z"/>
			<path class="st2" d="M316,276.3l-14.8-9l2.8-4.6l14.8,9l4.1-6.7l3.3,2l-10.9,18l-3.3-2L316,276.3z"/>
			<path class="st2" d="M278.6,294l4.1,1.6l7.7-7.6l-1.5-4.1l4.1-4.1l7.6,22.3l-4.1,4l-22.2-7.9L278.6,294z M295,300.3l-3.2-8.5
				l-5.3,5.2L295,300.3z"/>
			<path class="st2" d="M246.9,333.1L245,328l-12.7,4.6l-1.3-3.6l12.7-4.6l-2.8-7.7l5-1.8l7.2,19.9l-18.4,6.6l-1.3-3.6L246.9,333.1z
				"/>
			<path class="st2" d="M199.1,325.3l6.3,8.1l6-0.5l-0.7-8.5l5.3-0.4l1.6,21.1l-14.5,1.1c-1.8,0.1-2.6,0.1-3.5-0.1
				c-2.8-0.6-4.5-2.8-4.7-5.6c0-0.5-0.1-1.6,0.4-2.8c0.8-2.2,2.6-3,4.7-3.6l-7.1-8.3L199.1,325.3z M200.8,341.6c0.7,1,1.9,0.9,3,0.8
				l8.3-0.6l-0.4-5.2l-8.5,0.7c0,0-0.9,0-1.3,0.2c-0.6,0.2-1.8,0.8-1.7,2.6C200.3,340.2,200.4,341,200.8,341.6z"/>
			<path class="st2" d="M181,324.6l-4.1,20.8l-19.4-3.8l0.7-3.7l14.2,2.8l0.9-4.7l-13.7-2.7l0.7-3.7l13.7,2.7l1-4.9l-14.7-2.9
				l0.7-3.7L181,324.6z"/>
			<path class="st2" d="M127.7,323.3c0,0.4,0.1,0.7,0.1,0.8c0.5,2,2.6,3.3,4.2,4.2c0.3,0.1,0.9,0.4,1.6,0.7c0.2,0.1,2.8,1.1,3.7-0.8
				c0.5-1,0-1.7-0.7-2.4c-1.1-1.1-4.3-3.2-5.5-4.2c-1.2-0.9-1.7-1.3-2.3-1.9c-0.9-0.9-3.2-3.2-1.4-6.8c0.9-1.7,2.8-4.1,7.3-3.4
				c1.2,0.2,2.3,0.6,3.4,1c0.7,0.3,1.4,0.6,2.1,0.9c3.4,1.7,4.9,3.3,5.9,4.7c0.2,0.2,0.5,0.8,0.9,1.5c0.6,1.4,0.8,2.8,0.9,3.2
				c0.1,0.4,0.1,0.7,0.1,1l-4.9-1c0-2.9-2.6-5-4.9-6.1c-0.2-0.1-2.6-1.3-4.3-1.1c-0.3,0-1.3,0.2-1.7,1.2c-0.3,0.5-0.3,1.1,0,1.6
				c0.4,0.8,1.5,1.6,3.1,2.7c3.2,2.3,5,3.5,6.1,5c0.7,0.8,2.2,3.1,0.7,6c-1.3,2.5-3.4,3-4.4,3.2c-1.6,0.2-4,0.1-7.4-1.6
				c-3.2-1.6-4.7-3-5.7-4.3c-0.4-0.5-1.1-1.3-1.6-2.8c-0.3-0.9-0.4-1.4-0.4-2.4L127.7,323.3z"/>
			<path class="st2" d="M98.6,287.7c0.7-0.3,1.8-0.6,3.5-0.6c2.3,0,5.5,0.7,9.3,4.3c0.9,0.8,4,3.7,4.7,7.7c0.9,4.7-2,8.1-3,9.2
				c-1.5,1.6-3.4,2.9-5.5,3.4c-0.7,0.2-1.3,0.2-2.1,0.3c-1,0-1.4,0-1.9-0.1c-1.6-0.2-4.6-1.2-7.7-4.1c-0.9-0.8-3.8-3.6-4.7-7.5
				c-0.5-2.1-0.2-3.9-0.1-4.6c0.1-0.3,0.2-0.6,0.3-0.9l4.8,3.4c-0.1,0.6-0.3,1.7,0,3.1c0.2,0.8,0.8,2.3,2.3,3.7
				c0.4,0.4,1.4,1.3,2.9,1.8c2.8,1,5.7,0.1,7.7-2.1c1-1.1,1.8-2.6,1.9-4.1c0-0.3,0.1-1-0.1-1.9c-0.2-1-0.6-2.9-2.6-4.7
				c-2.3-2.1-4.4-2.3-5.7-2.1c-0.5,0-1,0.2-1.9,0.5l-4.2-3.7C97.6,288.1,98,287.9,98.6,287.7z"/>
			<path class="st2" d="M74.6,256.8c1.4-0.5,4.4-1.3,7.9,0.3c1.6,0.8,4,2.5,6.1,6.1c3.2,5.4,2.7,9.6,1.5,12.1
				c-0.5,1.1-1.8,3.3-4.6,4.9c-4.2,2.5-7.6,1.7-9.4,1c-2.7-1.1-4.9-3.4-6.4-5.8c-1.4-2.2-2.7-5.2-2.9-7.8c0-0.4-0.1-1,0-2
				c0.1-0.7,0.2-1.5,0.5-2.3c0.4-1.3,1.8-3.7,4.8-5.5C72.6,257.8,73.5,257.2,74.6,256.8z M71.7,266.7c-0.6,2.1-0.1,4.4,1,6.3
				c0.3,0.4,1,1.4,2.2,2.3c3.5,2.5,6.9,0.9,8.1,0.1c0.4-0.2,1.5-0.9,2.3-2c0.3-0.3,0.5-0.7,0.8-1.4c0.1-0.2,0.4-0.8,0.5-1.5
				c0.2-1.1,0.1-2.9-1.2-5.2c-0.2-0.4-0.9-1.5-2-2.4c-3.4-2.8-7.1-1-8.3-0.4C74.4,263,72.4,264.2,71.7,266.7z"/>
		</g>
		<g>
			<rect x="131" y="108" class="st2" width="14" height="5"/>
		</g>
		<g>
			<rect x="247" y="108" class="st2" width="14" height="5"/>
		</g>
		<g>
			<rect x="136" y="289" class="st2" width="14" height="5"/>
		</g>
		<g>
			<rect x="244" y="289" class="st2" width="14" height="5"/>
		</g>
		<g>
			<path class="st2" d="M166.6,294.8l-1.3-2.4h-0.6v2.4h-2.2v-6.9h3.7c0.2,0,0.4,0,0.6,0c0.3,0,1.2,0.1,1.7,0.9
				c0.1,0.2,0.3,0.6,0.3,1.2c0,0.7-0.3,1.2-0.8,1.6c-0.1,0.1-0.3,0.2-0.6,0.3l1.7,2.8H166.6z M166.4,289.7c-0.1-0.1-0.2-0.2-0.2-0.2
				c-0.2-0.1-0.5-0.1-0.7-0.1h-0.9v1.6h0.9c0.4,0,0.8,0,1-0.5c0,0,0-0.2,0-0.3C166.6,290,166.5,289.8,166.4,289.7z"/>
			<path class="st2" d="M176.5,294.8v-6.9h2.2v6.9H176.5z"/>
			<path class="st2" d="M193.1,294.8l0-5l-1.4,5h-1.6l-1.4-5l0,5h-2.1v-6.9h3.1l1.1,4.3l1.1-4.3h3.1v6.9H193.1z"/>
			<path class="st2" d="M203.3,294.8v-6.9h2.2v6.9H203.3z"/>
			<path class="st2" d="M217.8,294.8l-2.3-4l0,4h-2v-6.9h2.3l2.3,4l0-4h2v6.9H217.8z"/>
			<path class="st2" d="M228.2,294.8v-6.9h2.2v6.9H228.2z"/>
		</g>
		<g>
			<path class="st2" d="M158.6,107.9v1.2h3.1v1.5h-3.1v2.6h-2.2v-6.9h5.4v1.5H158.6z"/>
			<path class="st2" d="M174.2,113.3l-0.3-1h-2.4l-0.3,1h-2.3l2.6-6.9h2.5l2.6,6.9H174.2z M172.7,108.4l-0.7,2.4h1.5L172.7,108.4z"
				/>
			<path class="st2" d="M184.2,113.3v-6.9h5.4v1.5h-3.3v1h3v1.5h-3.1v1.4h3.6v1.5H184.2z"/>
			<path class="st2" d="M202,113.3l-2.3-4l0,4h-2v-6.9h2.3l2.3,4l0-4h2v6.9H202z"/>
			<path class="st2" d="M214.8,111.6h3.4v1.7H212v-1.4l3.5-3.8h-3.3v-1.6h6.1v1.4L214.8,111.6z"/>
			<path class="st2" d="M230.9,113.3l-0.3-1h-2.4l-0.3,1h-2.3l2.6-6.9h2.5l2.6,6.9H230.9z M229.4,108.4l-0.7,2.4h1.5L229.4,108.4z"
				/>
		</g>
		<g>
			<path class="st0" d="M94.9,205"/>
		</g>
		<g>
			<path class="st2" d="M124.5,145h-26c-1.4,0-2.5-1.1-2.5-2.5s1.1-2.5,2.5-2.5h26c1.4,0,2.5,1.1,2.5,2.5S125.9,145,124.5,145z"/>
		</g>
		<g>
			<path class="st2" d="M124.5,237h-51c-1.4,0-2.5-1.1-2.5-2.5s1.1-2.5,2.5-2.5h51c1.4,0,2.5,1.1,2.5,2.5S125.9,237,124.5,237z"/>
		</g>
		<g>
			<path class="st2" d="M124.5,159h-64c-1.4,0-2.5-1.1-2.5-2.5s1.1-2.5,2.5-2.5h64c1.4,0,2.5,1.1,2.5,2.5S125.9,159,124.5,159z"/>
		</g>
		<g>
			<path class="st2" d="M84.5,217h-24c-1.4,0-2.5-1.1-2.5-2.5s1.1-2.5,2.5-2.5h24c1.4,0,2.5,1.1,2.5,2.5S85.9,217,84.5,217z"/>
		</g>
		<g>
			<path class="st1" d="M83.4,200"/>
		</g>
		<g>
			<path class="st2" d="M224.5,265.1h-68.6c-0.7,0-1.3-0.3-1.7-0.7l-19.9-19.5c-0.5-0.5-0.8-1.1-0.8-1.8V139.6
				c0-1.4,1.1-2.5,2.5-2.5h3.9c2.7-0.1,66.9-1.3,71.1-1c13.8,1.1,22.5,3.3,29.1,7.5c3.4,2.1,6.4,4.5,9.2,7.5c1.1,1,2.1,2,3.1,3.1
				c0.7,0.6,1.3,1.2,1.9,1.9c1.1,1,2.1,2,3.1,3.1c0.6,0.6,1.3,1.2,1.9,1.9c1.1,1,2.1,2,3.1,3.1c0.7,0.6,1.3,1.2,1.9,1.9
				c1.2,1.1,2.4,2.3,3.5,3.6c0.2,0.2,0.5,0.5,0.7,0.8c1.6,1.7,3.1,3.7,4.6,5.8c0,0,0,0,0,0c9.6,13.9,9.6,28.4,9.6,33.2
				c0,6.6-1.1,23.2-11.7,35.9c-2.3,2.8-6.1,6.9-12.4,10.4c-0.3,0.1-0.6,0.3-0.9,0.5c-2.5,1.4-7.1,4-13,5.5c-1,0.3-2,0.5-2.9,0.8
				C237.6,263.9,233.3,265.1,224.5,265.1z M156.9,260.1h67.6c8.1,0,11.9-1.1,16-2.3c1-0.3,2-0.6,3.1-0.9c5.3-1.3,9.3-3.7,11.8-5
				c0.4-0.2,0.7-0.4,1-0.5c6.2-3.4,9.7-7.6,11-9.2c9.8-11.8,10.5-28,10.5-32.7c0-4.4,0-17.8-8.7-30.4v0c-1.4-2-2.8-3.7-4.3-5.3
				c-0.3-0.3-0.5-0.6-0.7-0.8c-1.1-1.2-2.1-2.3-3.3-3.3c0,0-0.1-0.1-0.1-0.1c-0.6-0.6-1.2-1.2-1.8-1.8c-0.1-0.1-0.1-0.1-0.2-0.2
				c-0.9-1-1.9-2-2.9-2.9c0,0-0.1-0.1-0.1-0.1c-0.6-0.6-1.2-1.2-1.8-1.8c-0.1-0.1-0.1-0.1-0.2-0.2c-0.9-1-1.9-2-2.9-2.9
				c0,0-0.1-0.1-0.1-0.1c-0.6-0.6-1.2-1.2-1.8-1.8c-0.1-0.1-0.1-0.1-0.2-0.2c-0.9-1-1.9-2-2.9-2.9c0,0-0.1-0.1-0.1-0.1
				c-2.5-2.6-5.2-4.8-8.3-6.7c-5.9-3.7-13.9-5.7-26.8-6.7c-3.3-0.3-52.1,0.6-70.7,1h-1.5v99.9L156.9,260.1z M192,221.6
				c-1.4,0-2.5-1.1-2.5-2.5v-35.5c0-1.4,1.1-2.5,2.5-2.5h28.5c1.4,0,2.5,1.1,2.5,2.5s-1.1,2.5-2.5,2.5h-26v33
				C194.5,220.5,193.4,221.6,192,221.6z"/>
		</g>
		<g>
			<path class="st2" d="M139,205H90.9c-9.6,0-17.5-7.9-17.5-17.5S81.2,170,90.9,170H139V205z M90.9,175c-6.9,0-12.5,5.6-12.5,12.5
				S84,200,90.9,200H134v-25H90.9z"/>
		</g>
		<g>
			<path class="st2" d="M136.5,223h-26.6c-4.9,0-9.7-2.3-13.2-6.3L77,198.3c-1-0.9-1.1-2.5-0.1-3.5c0.9-1,2.5-1.1,3.5-0.1l20,18.7
				c2.5,2.9,6,4.6,9.5,4.6h26.6c1.4,0,2.5,1.1,2.5,2.5S137.9,223,136.5,223z"/>
		</g>
		<g>
			<g>
				<g>
					<path class="st2" d="M203.6,246h-66.3c-1.4,0-2.5-1.1-2.5-2.5V139.1c0-1.4,1.1-2.5,2.5-2.5h59.3c4.2,0,8.4,0.2,12.6,0.5
						c26.3,2.2,37.1,13.9,43,22.4c9.6,13.8,9.6,28.3,9.6,33.1c0,8.3-1.5,23.9-11.7,35.8c-1.6,2-5.4,6-12.3,10
						c-2.2,1.2-7.2,3.9-13.9,5.6C218.5,245.2,214.5,246,203.6,246z M139.8,241h63.8c10.6,0,14.1-0.8,19.1-2c6.1-1.6,10.6-4,12.8-5.1
						c6.4-3.7,9.8-7.4,10.9-8.8c9.5-11.1,10.6-26.5,10.6-32.6c0-4.4,0-17.7-8.7-30.2c-5.3-7.7-15.2-18.2-39.3-20.3
						c-4-0.3-8.2-0.4-12.2-0.4h-56.8V241z M192.9,222.4h-19.1c-1.4,0-2.5-1.1-2.5-2.5v-55.9c0-1.4,1.1-2.5,2.5-2.5l18.8,0
						c11.5,0,18.4,3.3,22.1,6.1c9.6,7.4,10.6,19.3,10.6,24c0,3.7-0.4,9.5-3.7,16.2c-2.4,5.2-7.4,12.3-21.9,14.1
						C197.5,222.2,195.2,222.4,192.9,222.4z M176.3,217.4h16.6c2,0,4.1-0.1,6.2-0.4c11.9-1.5,15.8-6.6,18-11.3
						c3.2-6.5,3.2-12,3.2-14c0-4-0.8-14-8.7-20.1c-3.1-2.3-8.9-5.1-19-5.1l-16.3,0V217.4z"/>
				</g>
			</g>
		</g>
		<g>
			<path class="st2" d="M193.3,186.6c-0.6,0-1.3-0.2-1.8-0.7l-18.3-18.3c-1-1-1-2.6,0-3.5c1-1,2.6-1,3.5,0l18.3,18.3
				c1,1,1,2.6,0,3.5C194.6,186.3,193.9,186.6,193.3,186.6z"/>
		</g>
	</g>
</g>
</svg>
